<svg width="118" height="60" viewBox="0 0 118 60" fill="none" xmlns="http://www.w3.org/2000/svg">
<path d="M8.35074 23.9702C8.35074 19.3273 12.0914 15.5737 16.7008 15.5737V7.17782C7.4757 7.17782 0 14.6939 0 23.9702H8.35074Z" fill="#6ABD45"/>
<path d="M16.7009 15.5742C21.3186 15.5742 25.0517 19.3354 25.0517 23.9707H33.4018C33.4018 14.6944 25.9267 7.17767 16.7009 7.17767V15.5742Z" fill="#F6861F"/>
<path d="M25.0515 23.9703C25.0515 28.6132 21.3108 32.3668 16.7014 32.3668V40.7627C25.9266 40.7627 33.4023 33.2466 33.4023 23.9703H25.0515Z" fill="#28AAE1"/>
<path d="M16.7013 32.3667C12.0837 32.3667 8.3506 28.6055 8.3506 23.9702H0.000488281C0.000488281 33.2465 7.47556 40.7632 16.7013 40.7632V32.3667Z" fill="#CE171E"/>
<path d="M0.000488281 43.2076C0.000488281 52.484 7.47556 60 16.7013 60C25.9265 60 33.4022 52.484 33.4022 43.2076H25.0514C25.0514 47.8423 21.3108 51.6041 16.7013 51.6041C12.0837 51.6041 8.35123 47.8423 8.35123 43.2076H0.000488281Z" fill="#175EAB"/>
<path d="M38.2514 4.87604C38.2514 7.56887 36.0802 9.75195 33.4021 9.75195C30.7239 9.75195 28.5527 7.56887 28.5527 4.87604C28.5527 2.18322 30.7239 0.000136375 33.4021 0.000136375C36.0802 0.000136375 38.2514 2.18322 38.2514 4.87604Z" fill="#175EAB"/>
<path d="M52.843 14.466H59.9761C59.9953 14.7174 59.9953 14.93 59.9953 15.1233C59.9953 18.8738 57.3613 21.8316 53.5351 21.8316C49.7667 21.8316 46.825 18.8738 46.825 15.104C46.825 11.3342 49.7667 8.37642 53.4967 8.37642C56.3038 8.37642 58.6494 9.749 59.5723 12.1269L58.2072 12.6102C57.3036 10.7349 55.5539 9.807 53.4967 9.807C50.6127 9.807 48.3632 12.1269 48.3632 15.104C48.3632 18.0811 50.6511 20.401 53.5736 20.401C56.323 20.401 58.2265 18.4678 58.5341 15.8579H52.843V14.466Z" fill="#231F20"/>
<path d="M64.2045 21.5803H62.7432V7.66113H64.2045V21.5803Z" fill="#231F20"/>
<path d="M71.7597 11.8369C74.5475 11.8369 76.7778 13.8861 76.7778 16.8052C76.7778 19.7244 74.5475 21.8122 71.7597 21.8122C68.9333 21.8122 66.7223 19.7244 66.7223 16.8052C66.7223 13.8861 68.9333 11.8369 71.7597 11.8369ZM71.7597 20.517C73.7016 20.517 75.3358 19.0091 75.3358 16.8052C75.3358 14.6207 73.7016 13.1321 71.7597 13.1321C69.7985 13.1321 68.145 14.6207 68.145 16.8052C68.145 19.0091 69.7985 20.517 71.7597 20.517Z" fill="#231F20"/>
<path d="M84.5146 11.8175C87.0333 11.8175 89.2444 13.8087 89.2444 16.8246C89.2444 19.8404 87.0333 21.8316 84.5146 21.8316C82.938 21.8316 81.5922 21.1936 80.7462 20.0723V21.5803H79.285V7.66113H80.7462V13.5768C81.5922 12.4555 82.938 11.8175 84.5146 11.8175ZM84.2839 20.517C86.245 20.517 87.8216 19.0864 87.8216 16.8246C87.8216 14.5434 86.245 13.1128 84.2839 13.1128C82.4958 13.1128 80.7462 14.5434 80.7462 16.8246C80.7462 19.0864 82.4958 20.517 84.2839 20.517Z" fill="#231F20"/>
<path d="M100.769 12.0495V21.5803H99.3079V20.0723C98.462 21.1936 97.1161 21.8316 95.5395 21.8316C93.0208 21.8316 90.8097 19.8404 90.8097 16.8246C90.8097 13.8087 93.0208 11.8175 95.5395 11.8175C97.1161 11.8175 98.462 12.4555 99.3079 13.5768V12.0495H100.769ZM95.7702 20.517C97.5583 20.517 99.3079 19.0864 99.3079 16.8246C99.3079 14.5434 97.5583 13.1128 95.7702 13.1128C93.8091 13.1128 92.2325 14.5434 92.2325 16.8246C92.2325 19.0864 93.8091 20.517 95.7702 20.517Z" fill="#231F20"/>
<path d="M105.606 21.5803H104.145V7.66113H105.606V21.5803Z" fill="#231F20"/>
<path d="M51.7471 25.466C54.3234 25.466 56.1307 26.8966 56.573 29.0231L55.054 29.3711C54.7656 27.8052 53.4775 26.7999 51.7086 26.7999C49.9782 26.7999 48.7861 27.7472 48.7861 29.1391C48.7861 30.299 49.5168 30.821 50.728 31.0723L53.5351 31.7103C55.3232 32.0969 56.7845 33.0055 56.7845 35.0741C56.7845 37.4326 54.881 38.9212 51.997 38.9212C49.2668 38.9212 47.075 37.5099 46.7673 35.0547L48.3632 34.7261C48.6516 36.5433 50.132 37.5679 52.1316 37.5679C54.0927 37.5679 55.2655 36.582 55.2655 35.1514C55.2655 33.9335 54.6118 33.4502 53.1698 33.1215L50.2666 32.4836C48.6131 32.1163 47.1711 31.2463 47.1711 29.1778C47.1711 26.9546 48.9976 25.466 51.7471 25.466Z" fill="#231F20"/>
<path d="M63.5898 37.5486C64.9934 37.5486 66.2623 36.8333 66.7238 35.4027L68.0696 35.77C67.5505 37.7226 65.6855 38.9212 63.5898 38.9212C60.9173 38.9212 58.6485 36.9493 58.6485 33.9141C58.6485 30.9177 60.9173 28.9071 63.5898 28.9071C65.6663 28.9071 67.5121 30.125 68.0889 32.0776L66.6853 32.5029C66.2623 31.0337 64.9934 30.2604 63.5898 30.2604C61.6479 30.2604 60.0713 31.7296 60.0713 33.9141C60.0713 36.1373 61.6479 37.5486 63.5898 37.5486Z" fill="#231F20"/>
<path d="M75.629 28.9071C77.917 28.9071 79.4359 30.5504 79.4359 32.9669V38.6698H77.9747V33.2375C77.9747 31.459 76.9172 30.2604 75.3406 30.2604C73.3603 30.2604 72.0529 31.6136 72.0529 34.0881V38.6698H70.5916V24.7507H72.0529V30.7243C72.8219 29.5644 74.0332 28.9071 75.629 28.9071Z" fill="#231F20"/>
<path d="M86.7805 28.9265C89.5684 28.9265 91.7987 30.9757 91.7987 33.8948C91.7987 36.814 89.5684 38.9018 86.7805 38.9018C83.9542 38.9018 81.7431 36.814 81.7431 33.8948C81.7431 30.9757 83.9542 28.9265 86.7805 28.9265ZM86.7805 37.6066C88.7224 37.6066 90.3567 36.0987 90.3567 33.8948C90.3567 31.7103 88.7224 30.2217 86.7805 30.2217C84.8194 30.2217 83.1659 31.7103 83.1659 33.8948C83.1659 36.0987 84.8194 37.6066 86.7805 37.6066Z" fill="#231F20"/>
<path d="M98.478 28.9265C101.266 28.9265 103.496 30.9757 103.496 33.8948C103.496 36.814 101.266 38.9018 98.478 38.9018C95.6517 38.9018 93.4406 36.814 93.4406 33.8948C93.4406 30.9757 95.6517 28.9265 98.478 28.9265ZM98.478 37.6066C100.42 37.6066 102.054 36.0987 102.054 33.8948C102.054 31.7103 100.42 30.2217 98.478 30.2217C96.5169 30.2217 94.8634 31.7103 94.8634 33.8948C94.8634 36.0987 96.5169 37.6066 98.478 37.6066Z" fill="#231F20"/>
<path d="M107.465 38.6698H106.003V24.7507H107.465V38.6698Z" fill="#231F20"/>
<path d="M110.04 36.0987L111.501 35.77C111.636 37.0266 112.789 37.7032 114.289 37.7032C115.654 37.7032 116.558 37.0653 116.558 36.0793C116.558 35.2867 115.962 34.9194 115.001 34.7068L112.828 34.2235C111.251 33.8948 110.367 33.1022 110.367 31.7876C110.367 30.0671 111.79 28.9071 113.962 28.9071C116.096 28.9071 117.481 30.0091 117.827 31.5556L116.423 31.8649C116.231 30.821 115.327 30.1057 113.924 30.1057C112.578 30.1057 111.828 30.763 111.828 31.6716C111.828 32.4256 112.347 32.7735 113.27 32.9862L115.558 33.4888C116.942 33.7981 118 34.5328 118 35.9827C118 37.8579 116.443 38.9212 114.174 38.9212C112.001 38.9212 110.271 37.9546 110.04 36.0987Z" fill="#231F20"/>
<path d="M52.843 48.6452H59.9761C59.9953 48.8965 59.9953 49.1092 59.9953 49.3025C59.9953 53.0529 57.3613 56.0107 53.5351 56.0107C49.7667 56.0107 46.825 53.0529 46.825 49.2832C46.825 45.5134 49.7667 42.5556 53.4967 42.5556C56.3038 42.5556 58.6494 43.9282 59.5723 46.306L58.2072 46.7893C57.3036 44.9141 55.5539 43.9862 53.4967 43.9862C50.6127 43.9862 48.3632 46.306 48.3632 49.2832C48.3632 52.2603 50.6511 54.5802 53.5736 54.5802C56.323 54.5802 58.2265 52.647 58.5341 50.0371H52.843V48.6452Z" fill="#231F20"/>
<path d="M68.0306 46.132C68.2613 46.132 68.4343 46.132 68.7035 46.2094L68.5882 47.6206C68.4151 47.6013 68.2036 47.6013 68.0306 47.6013C65.5119 47.6013 64.2237 49.5152 64.2237 52.0863V55.7594H62.7432V46.2287H64.2237V48.5679C64.9928 47.1566 66.2809 46.132 68.0306 46.132Z" fill="#231F20"/>
<path d="M74.5949 46.016C77.3827 46.016 79.613 48.0653 79.613 50.9844C79.613 53.9035 77.3827 55.9914 74.5949 55.9914C71.7685 55.9914 69.5575 53.9035 69.5575 50.9844C69.5575 48.0653 71.7685 46.016 74.5949 46.016ZM74.5949 54.6962C76.5368 54.6962 78.171 53.1883 78.171 50.9844C78.171 48.7999 76.5368 47.3113 74.5949 47.3113C72.6337 47.3113 70.9802 48.7999 70.9802 50.9844C70.9802 53.1883 72.6337 54.6962 74.5949 54.6962Z" fill="#231F20"/>
<path d="M90.753 46.2287V55.7401H89.2725V54.1935C88.5034 55.3341 87.2729 55.9914 85.6963 55.9914C83.4084 55.9914 81.8894 54.3482 81.8894 51.9317V46.2287H83.3699V51.661C83.3699 53.4396 84.4081 54.6188 85.9847 54.6188C87.9651 54.6188 89.2725 53.2849 89.2725 50.8104V46.2287H90.753Z" fill="#231F20"/>
<path d="M99.3477 45.9967C101.866 45.9967 104.078 47.9879 104.078 51.0037C104.078 54.0195 101.866 56.0107 99.3477 56.0107C97.7712 56.0107 96.4253 55.3728 95.5793 54.2515V59.0459H94.1181V46.2287H95.5793V47.7559C96.4253 46.6347 97.7712 45.9967 99.3477 45.9967ZM99.117 54.6962C101.078 54.6962 102.655 53.2656 102.655 51.0037C102.655 48.7225 101.078 47.292 99.117 47.292C97.3289 47.292 95.5793 48.7225 95.5793 51.0037C95.5793 53.2656 97.3289 54.6962 99.117 54.6962Z" fill="#231F20"/>
</svg>
